<?xml version="1.0" standalone="no"?>
<!DOCTYPE svg PUBLIC "-//W3C//DTD SVG 20010904//EN"
 "http://www.w3.org/TR/2001/REC-SVG-20010904/DTD/svg10.dtd">
<svg version="1.0" xmlns="http://www.w3.org/2000/svg"
 width="1024.000000pt" height="1024.000000pt" viewBox="0 0 1024.000000 1024.000000"
 preserveAspectRatio="xMidYMid meet">

<g transform="translate(0.000000,1024.000000) scale(0.100000,-0.100000)"
fill="#000000" stroke="none">
<path d="M0 5120 l0 -5120 5120 0 5120 0 0 5120 0 5120 -5120 0 -5120 0 0
-5120z m5083 4603 c31 -27 70 -67 87 -90 17 -23 50 -53 73 -67 24 -13 87 -70
140 -126 53 -55 97 -99 97 -98 0 12 -21 124 -25 141 -10 33 58 -64 99 -142 84
-159 117 -292 117 -465 0 -60 2 -107 4 -104 2 2 20 50 38 106 39 114 41 112
53 -27 7 -81 6 -83 -14 -77 -17 6 -24 0 -38 -26 -49 -98 -56 -82 -104 257 -10
69 -56 234 -68 247 -4 4 -7 -24 -7 -62 -1 -79 -18 -113 -30 -58 -16 74 -96
193 -213 318 l-61 65 -1 -53 c0 -65 -29 -184 -43 -179 -6 2 -16 32 -23 67 -8
34 -24 93 -36 129 l-23 66 -6 -55 c-11 -92 -46 -173 -124 -280 -44 -60 -101
-177 -116 -234 -18 -72 -31 -57 -42 49 -2 24 -5 19 -17 -30 -9 -38 -13 -106
-12 -185 2 -113 1 -123 -13 -105 -41 52 -58 231 -31 332 19 75 86 215 126 263
l29 35 -19 -78 c-9 -43 -14 -77 -10 -75 20 7 123 149 153 208 29 59 32 72 32
160 -1 73 -6 109 -23 155 -12 32 -22 61 -22 62 0 11 23 -3 73 -44z m-669 -284
c4 -22 13 -56 20 -74 14 -32 16 -33 91 -40 74 -7 76 -8 58 -27 -9 -11 -45 -39
-79 -63 -59 -42 -62 -46 -73 -104 -12 -61 -24 -81 -36 -60 -5 7 -15 3 -31 -12
l-24 -22 0 77 0 77 -75 35 c-41 19 -75 37 -75 39 0 3 32 21 70 40 39 20 74 43
77 53 18 53 57 131 63 127 4 -2 10 -23 14 -46z m1699 4 c9 -21 23 -55 31 -75
12 -31 26 -43 80 -70 36 -18 66 -35 66 -39 0 -3 -28 -19 -62 -34 -35 -15 -69
-34 -75 -43 -8 -9 -13 -45 -13 -86 l0 -70 -35 34 c-20 19 -44 56 -53 83 -14
40 -29 57 -90 103 -41 31 -71 58 -68 61 3 4 39 11 78 17 l73 11 20 72 c11 40
23 73 26 73 3 0 13 -17 22 -37z m-982 -314 c-12 -30 -15 124 -3 186 5 31 8 18
10 -61 1 -55 -2 -111 -7 -125z m-1305 115 c16 -31 35 -59 42 -62 8 -2 43 0 80
6 36 6 68 10 70 8 2 -2 -17 -31 -43 -64 l-46 -60 26 -52 c14 -29 24 -54 21
-57 -2 -3 -30 1 -62 7 -52 11 -58 10 -67 -6 -6 -10 -28 -37 -50 -59 l-39 -40
6 59 c7 82 -1 92 -84 107 -38 7 -70 15 -70 18 0 4 32 26 71 50 76 47 83 58 94
144 4 31 11 57 14 57 4 0 21 -25 37 -56z m2970 -143 c41 -25 71 -48 67 -51 -5
-4 -37 -12 -73 -19 -36 -7 -67 -15 -70 -18 -3 -2 -5 -34 -5 -69 0 -35 -3 -64
-7 -64 -3 0 -24 23 -45 50 l-38 51 -63 -6 c-35 -3 -62 -2 -60 2 2 4 14 29 27
55 l24 47 -29 41 c-65 92 -63 84 -24 77 19 -4 54 -9 77 -13 46 -7 37 -15 97
88 l20 33 14 -80 14 -80 74 -44z m-3606 -66 c21 -25 49 -28 76 -6 33 26 44 26
44 2 0 -40 11 -51 51 -51 21 0 39 -3 39 -7 0 -5 -14 -25 -30 -47 l-29 -38 20
-40 c11 -22 18 -42 15 -46 -3 -3 -24 0 -47 7 -41 12 -42 12 -79 -24 l-37 -36
-7 49 -6 49 -50 5 c-28 3 -54 8 -58 13 -4 4 11 22 32 41 38 33 39 36 37 89 -2
55 6 67 29 40z m4043 -14 c17 -14 22 -14 57 7 22 12 42 22 46 22 4 0 3 -23 0
-52 -7 -50 -6 -52 34 -93 l42 -43 -53 -7 c-56 -8 -68 -17 -69 -50 0 -11 -5
-27 -10 -35 -8 -12 -15 -9 -40 18 -31 34 -41 36 -112 16 -21 -6 -22 3 -3 36
21 36 18 57 -10 94 -14 18 -25 36 -25 39 0 4 20 7 45 7 43 0 45 1 45 28 0 46
12 49 53 13z m-2850 -153 c17 -23 38 -87 67 -208 23 -96 72 -283 107 -415 69
-256 68 -255 65 -414 l-2 -104 -24 22 c-13 12 -35 43 -49 69 -24 45 -161 484
-187 602 l-12 55 -114 0 c-86 0 -114 -3 -114 -13 0 -23 -39 -89 -55 -96 -9 -3
-29 -6 -45 -6 -27 0 -40 -15 -40 -46 0 -9 25 -27 57 -41 55 -25 57 -25 71 -7
13 17 14 11 8 -56 -4 -41 -13 -99 -21 -129 -16 -60 -62 -138 -75 -125 -5 5
-20 38 -33 74 -13 36 -70 179 -126 318 -56 138 -104 265 -107 282 -9 44 2 75
33 89 125 57 489 179 540 180 25 1 37 -6 56 -31z m1893 1 c121 -33 311 -99
391 -134 67 -30 79 -52 60 -113 -35 -111 -235 -634 -248 -647 -12 -12 -14 -25
26 184 19 100 35 184 35 186 0 2 -24 14 -52 28 -29 13 -77 43 -105 66 l-53 43
0 72 c0 44 5 77 12 84 10 10 10 15 -2 22 -27 18 -42 11 -40 -17 1 -16 1 -39 1
-53 l-2 -25 -14 25 c-8 14 -14 32 -15 41 0 18 -44 69 -59 69 -5 0 -9 -22 -9
-49 -1 -28 -8 -63 -16 -79 -15 -30 -15 -30 16 -41 38 -13 48 -14 48 -2 0 5 -8
11 -17 13 -15 2 -17 11 -13 53 l5 50 34 -57 c18 -32 37 -61 42 -64 20 -12 8
-44 -23 -60 -29 -15 -90 -16 -136 -3 -10 3 -23 -35 -48 -131 -65 -253 -125
-472 -141 -511 -14 -36 -63 -89 -83 -89 -4 0 -10 39 -12 88 -6 115 1 153 169
857 59 249 58 248 249 194z m-3489 -155 c140 -47 223 -210 170 -336 -24 -56
-91 -123 -149 -148 -128 -55 -268 15 -268 133 0 122 125 210 201 141 23 -21
25 -77 3 -98 -19 -19 -22 -19 -54 -1 -30 16 -50 4 -50 -30 0 -49 62 -74 126
-50 83 32 112 128 64 213 -64 114 -238 108 -328 -12 -50 -64 -64 -108 -64
-196 0 -87 28 -174 82 -254 29 -45 36 -63 28 -73 -18 -23 -34 -15 -90 46 -125
135 -151 322 -66 481 86 164 241 236 395 184z m5149 -19 c108 -63 195 -195
209 -314 8 -70 -7 -155 -41 -226 -23 -50 -112 -155 -130 -155 -34 1 -32 19 17
115 75 151 84 244 32 350 -62 127 -176 183 -280 140 -21 -9 -46 -23 -56 -33
-71 -64 -63 -197 13 -237 42 -22 106 -19 130 5 40 40 13 104 -29 66 -10 -9
-23 -16 -29 -16 -19 0 -52 38 -52 61 0 27 53 79 80 79 42 0 92 -33 122 -79 24
-38 29 -54 25 -92 -13 -150 -216 -202 -338 -87 -57 53 -81 104 -87 178 -4 61
-1 76 22 124 52 107 145 159 272 153 57 -3 82 -10 120 -32z m-2538 -60 c46
-19 50 -29 28 -72 -8 -15 -20 -54 -26 -86 -16 -80 -34 -64 -28 24 l5 69 -54
16 c-41 12 -86 15 -174 13 -65 -2 -119 -1 -119 3 0 11 53 37 97 48 58 14 221
6 271 -15z m-660 -10 c-3 -3 -9 2 -12 12 -6 14 -5 15 5 6 7 -7 10 -15 7 -18z
m983 -22 c-12 -20 -14 -14 -5 12 4 9 9 14 11 11 3 -2 0 -13 -6 -23z m1232 -9
c73 -37 229 -130 280 -167 15 -12 27 -27 27 -35 0 -21 -39 -72 -56 -72 -20 0
-259 -116 -271 -132 -6 -7 -20 -51 -32 -98 -12 -46 -27 -96 -34 -110 -12 -25
-129 -120 -148 -120 -5 0 -15 12 -21 28 -7 15 -28 52 -46 82 -42 66 -47 42 71
340 118 298 128 320 144 320 7 0 46 -16 86 -36z m-3284 -76 c26 -57 51 -112
55 -123 7 -18 6 -18 -16 2 -13 12 -36 26 -53 32 -25 9 -27 8 -11 -2 10 -6 32
-23 48 -36 l29 -24 -27 -29 c-35 -35 -49 -25 -66 50 -7 29 -16 52 -20 52 -3 0
-9 -30 -13 -67 -3 -38 -8 -87 -11 -111 -5 -42 -5 -43 16 -32 18 10 21 17 15
46 -6 36 9 48 20 14 3 -10 20 -26 38 -35 34 -17 38 -14 67 35 6 11 12 12 20 4
14 -14 119 -256 126 -292 6 -29 5 -30 -64 -51 -97 -29 -137 -27 -192 9 -25 16
-48 30 -51 30 -4 0 -14 -20 -23 -43 -9 -24 -27 -54 -40 -66 l-23 -22 -25 38
c-14 21 -73 102 -131 180 -58 79 -119 167 -137 197 -34 60 -32 73 12 112 49
44 369 233 396 234 7 0 35 -46 61 -102z m1588 -56 c24 -15 43 -81 77 -271 51
-278 70 -437 54 -460 -34 -46 -143 -171 -150 -171 -5 0 -8 6 -8 13 -3 85 -12
587 -11 602 1 11 4 82 7 158 3 75 8 137 12 137 4 0 12 -4 19 -8z m2140 -190
c26 -16 100 -66 163 -112 205 -148 260 -198 260 -236 0 -20 -369 -404 -389
-404 -12 0 -38 85 -53 177 l-12 71 -44 4 c-42 3 -44 2 -80 -47 -21 -27 -50
-69 -65 -92 -16 -23 -34 -44 -40 -46 -7 -2 -50 13 -96 34 -46 22 -90 39 -97
39 -8 0 -14 7 -14 17 0 19 403 623 415 623 2 0 26 -13 52 -28z m-1904 -35 c33
-17 82 -56 114 -91 55 -59 120 -176 125 -225 3 -23 -2 -26 -62 -39 -36 -8 -77
-15 -92 -16 -16 -1 -28 -4 -28 -7 0 -6 -51 -32 -55 -27 -1 2 -11 39 -23 83
-21 84 -24 118 -10 109 5 -3 6 -10 3 -15 -3 -5 1 -6 10 -3 14 6 11 12 -15 39
-27 28 -34 46 -49 134 l-19 102 22 -7 c11 -3 47 -20 79 -37z m-2350 -86 c45
-53 128 -145 185 -205 57 -60 115 -126 128 -145 13 -20 31 -46 40 -58 9 -12
14 -28 12 -35 -3 -7 -33 24 -67 67 -121 154 -129 163 -188 190 -32 14 -79 38
-106 51 -35 19 -48 22 -52 12 -2 -7 -11 -75 -20 -150 -9 -76 -25 -169 -35
-207 l-20 -70 91 -113 c50 -62 95 -122 101 -132 18 -34 -199 161 -389 349
-213 210 -213 210 -135 283 26 25 114 98 195 164 124 99 151 117 164 107 8 -7
51 -56 96 -108z m-1013 -113 l41 -52 -83 -75 c-118 -106 -228 -221 -314 -328
l-74 -92 -59 37 -59 37 18 30 c76 123 224 285 374 412 55 45 103 83 107 83 4
0 26 -23 49 -52z m6358 -27 c104 -85 229 -209 309 -307 51 -63 98 -133 92
-138 -116 -81 -108 -77 -127 -58 -9 9 -46 53 -81 96 -85 103 -228 248 -318
320 l-73 58 32 42 c29 38 57 66 66 66 2 0 47 -36 100 -79z m-6224 -197 l68
-56 -138 -141 c-76 -78 -142 -146 -147 -152 -5 -6 -13 -5 -20 5 -7 8 -36 35
-64 58 -29 24 -53 48 -53 53 0 10 269 289 279 289 4 0 38 -25 75 -56z m6134
-58 c102 -99 209 -224 174 -202 -13 8 -58 -20 -108 -66 l-30 -28 -152 149
-152 150 63 55 c34 31 68 56 75 56 7 0 65 -51 130 -114z m-2648 -328 l0 -383
-65 -86 c-68 -91 -212 -235 -314 -313 l-61 -47 0 319 0 320 63 23 c34 13 100
40 146 62 61 27 86 35 91 26 12 -18 57 21 64 55 6 28 9 266 3 266 -1 0 -34
-16 -72 -36 -88 -46 -198 -129 -296 -222 l-77 -72 -18 27 c-10 16 -17 36 -15
47 2 13 -1 16 -11 10 -11 -6 -11 -5 0 8 15 19 -3 34 -173 134 -141 84 -155 97
-155 146 0 24 5 38 13 38 31 0 149 -84 250 -178 l110 -103 106 104 c110 107
175 157 239 184 34 15 148 51 165 52 4 1 7 -171 7 -381z m-1559 342 c81 -42
167 -147 194 -238 12 -42 -31 -8 -86 68 -28 39 -53 70 -55 70 -3 0 11 -29 31
-65 20 -35 33 -70 29 -76 -4 -8 -3 -9 4 -5 7 4 12 2 12 -3 0 -7 -31 -11 -82
-11 l-81 0 29 29 c20 21 30 25 32 16 2 -8 10 -11 18 -8 16 6 19 50 4 87 -12
33 -79 106 -96 106 -8 0 -14 10 -14 25 0 30 9 31 61 5z m2158 -22 c-4 -24 -8
-70 -9 -102 0 -66 -10 -66 -32 1 l-14 42 -32 -30 c-40 -37 -40 -59 -2 -102 16
-19 27 -37 23 -41 -3 -3 -32 -6 -64 -6 -32 0 -60 -3 -62 -7 -3 -5 32 -7 78 -5
80 3 83 3 78 -17 -5 -19 -13 -21 -84 -21 -74 0 -79 1 -85 24 -4 16 7 49 35
105 23 44 39 81 37 81 -2 0 -29 -34 -60 -75 -31 -41 -61 -75 -67 -75 -16 0 49
115 94 166 35 40 133 102 163 104 8 0 9 -13 3 -42z m-3738 -49 c48 -32 131
-93 185 -137 109 -87 394 -341 394 -351 0 -6 -103 -77 -107 -74 -4 3 -109 -93
-230 -211 -120 -117 -134 -128 -150 -115 -10 8 -58 48 -107 89 -49 41 -130
108 -180 149 -111 91 -214 178 -283 241 l-52 48 46 53 c25 30 116 129 201 221
141 151 157 166 176 156 12 -6 60 -37 107 -69z m5525 -91 c93 -95 187 -195
209 -222 l39 -48 -30 -27 c-17 -14 -82 -69 -144 -121 -62 -52 -118 -100 -124
-105 -6 -6 -49 -42 -96 -80 -108 -87 -224 -188 -228 -197 -2 -5 -7 -8 -10 -8
-4 0 -65 57 -136 126 -71 68 -176 159 -235 201 -58 42 -108 79 -111 81 -7 6
208 209 328 310 113 95 340 261 358 261 6 1 87 -77 180 -171z m-4590 85 c-7
-7 -26 7 -26 19 0 6 6 6 15 -2 9 -7 13 -15 11 -17z m616 -3 c13 0 4 -78 -11
-93 -8 -8 -11 9 -10 59 1 38 3 61 6 52 2 -10 9 -18 15 -18z m-894 -32 c-6 -18
-13 -27 -15 -21 -4 11 13 53 22 53 2 0 -1 -15 -7 -32z m286 0 c19 -27 21 -45
4 -26 -29 30 -40 48 -30 48 6 0 18 -10 26 -22z m24 -3 c-3 -3 -9 2 -12 12 -6
14 -5 15 5 6 7 -7 10 -15 7 -18z m22 -68 c0 -5 -4 -5 -10 -2 -5 3 -10 14 -10
23 0 15 2 15 10 2 5 -8 10 -19 10 -23z m3281 -30 c-10 -9 -11 -8 -5 6 3 10 9
15 12 12 3 -3 0 -11 -7 -18z m-3425 -88 c1 -16 -2 -26 -7 -24 -4 3 -7 19 -7
35 1 38 12 29 14 -11z m874 21 c0 -6 -5 -8 -11 -5 -5 4 -19 -1 -29 -10 -15
-14 -22 -14 -40 -5 -15 8 -20 8 -16 1 5 -7 -6 -11 -33 -11 -38 0 -58 11 -47
28 8 12 176 14 176 2z m2720 -25 c0 -18 -59 -85 -60 -67 0 6 5 12 11 12 6 0 9
6 6 13 -2 6 5 22 16 35 24 26 27 27 27 7z m-3625 -15 c3 -5 1 -10 -4 -10 -6 0
-11 5 -11 10 0 6 2 10 4 10 3 0 8 -4 11 -10z m106 -83 c-5 -20 -6 -20 -9 6 -2
15 -12 32 -23 37 -10 6 -19 16 -19 22 0 7 13 -1 29 -16 21 -20 27 -33 22 -49z
m-51 23 c0 -5 -2 -10 -4 -10 -3 0 -8 5 -11 10 -3 6 -1 10 4 10 6 0 11 -4 11
-10z m3483 -7 c-4 -10 -2 -14 4 -10 7 5 9 0 6 -13 -7 -27 -52 -55 -66 -41 -8
8 -4 11 13 11 17 0 21 3 13 11 -8 8 -5 18 10 35 24 28 29 30 20 7z m-2635 -5
c-2 -6 -37 -31 -77 -56 -84 -51 -101 -47 -101 24 l0 44 91 0 c65 0 90 -3 87
-12z m1966 2 c28 -10 33 -29 14 -48 -7 -7 -13 -20 -13 -30 0 -9 -4 -17 -10
-17 -19 0 -145 80 -145 93 0 15 116 17 154 2z m-2784 -14 c0 -3 -4 -8 -10 -11
-5 -3 -10 -1 -10 4 0 6 5 11 10 11 6 0 10 -2 10 -4z m1499 -73 c46 -24 99 -46
118 -49 l33 -6 0 -314 c0 -312 0 -315 -20 -304 -19 10 -20 21 -20 214 0 112
-3 236 -6 277 l-7 74 -51 23 c-105 46 -186 110 -186 147 0 6 28 -7 139 -62z
m-3145 -16 c33 -23 61 -47 63 -53 5 -16 -76 -104 -96 -104 -14 0 -120 50 -140
66 -4 3 102 134 109 134 3 -1 32 -20 64 -43z m6906 -85 c0 -5 -29 -23 -65 -41
l-65 -32 -54 55 -53 55 61 46 61 46 58 -61 c31 -33 57 -64 57 -68z m-5179 101
c13 -16 12 -17 -3 -4 -10 7 -18 15 -18 17 0 8 8 3 21 -13z m759 -53 c0 -34 -4
-60 -10 -60 -6 0 -33 12 -61 26 l-50 27 53 33 c29 18 56 33 61 33 4 1 7 -26 7
-59z m1825 30 c24 -16 48 -30 54 -30 24 0 9 -16 -40 -43 -28 -16 -53 -26 -57
-23 -8 9 -16 126 -8 126 4 0 27 -13 51 -30z m740 10 c-3 -5 -12 -10 -18 -10
-7 0 -6 4 3 10 19 12 23 12 15 0z m-3237 -56 c19 -29 21 -39 11 -48 -9 -8 -10
-8 -4 2 8 16 -27 46 -36 31 -3 -5 -6 4 -6 21 0 39 7 38 35 -6z m-48 16 c0 -5
-4 -10 -10 -10 -5 0 -10 5 -10 10 0 6 5 10 10 10 6 0 10 -4 10 -10z m-1486
-112 c45 -40 127 -111 181 -158 54 -47 122 -105 149 -130 28 -25 64 -54 80
-66 l29 -21 -83 -96 c-53 -62 -87 -94 -94 -89 -6 5 -45 36 -86 69 -69 55 -260
194 -394 286 l-56 38 23 33 c26 39 161 206 165 206 2 0 41 -33 86 -72z m2129
20 c20 -10 20 -11 -2 -27 -28 -22 -107 -51 -115 -44 -3 4 -6 33 -6 65 l0 58
51 -21 c29 -11 61 -25 72 -31z m4202 -22 c85 -94 128 -153 121 -165 -3 -5 -32
-26 -63 -47 -58 -38 -321 -235 -420 -314 l-51 -41 -44 48 c-134 145 -131 142
-117 160 8 9 66 60 129 113 63 54 171 147 240 209 69 61 128 111 132 111 4 0
36 -33 73 -74z m-7149 11 c11 -32 32 -47 89 -64 44 -12 37 -35 -20 -63 -46
-23 -50 -28 -53 -65 -5 -58 -16 -63 -55 -21 -29 30 -41 36 -75 36 -63 0 -63
13 -2 63 14 12 20 27 19 45 -3 21 7 38 36 69 22 23 42 40 45 37 3 -3 10 -20
16 -37z m7864 12 c8 -12 25 -25 38 -30 20 -8 23 -14 17 -40 -6 -26 -2 -35 29
-64 20 -18 36 -38 36 -44 0 -6 -20 -11 -45 -11 -41 0 -50 -5 -85 -42 -42 -46
-47 -44 -52 27 -3 37 -7 42 -53 65 -62 31 -64 50 -6 67 54 16 68 27 76 64 8
34 25 37 45 8z m-5450 -9 c0 -5 -5 -10 -11 -10 -5 0 -7 5 -4 10 3 6 8 10 11
10 2 0 4 -4 4 -10z m2470 -5 c0 -9 -6 -12 -16 -8 -13 5 -13 7 -2 14 17 11 18
11 18 -6z m-2886 -62 c34 -25 65 -49 69 -53 5 -4 -15 -24 -43 -45 -83 -61
-187 -149 -305 -260 l-111 -103 -30 27 c-16 14 -45 39 -63 54 l-34 28 69 70
c101 103 359 323 383 328 3 1 32 -20 65 -46z m3934 0 c87 -62 218 -171 321
-269 l84 -79 -64 -57 -64 -57 -60 62 c-74 78 -224 204 -332 280 l-82 58 62 54
c34 29 64 54 66 54 2 1 33 -20 69 -46z m-2908 -43 l0 -60 -60 31 -59 31 52 28
c28 16 55 29 60 29 4 1 7 -26 7 -59z m1842 29 c14 -11 34 -19 45 -19 10 0 -7
-15 -40 -35 -32 -19 -62 -35 -68 -35 -5 0 -9 27 -9 61 0 58 1 60 23 53 12 -3
34 -15 49 -25z m2721 -92 c90 -119 167 -232 211 -310 l28 -47 -158 -76 c-87
-41 -230 -117 -318 -167 -89 -51 -164 -93 -168 -95 -11 -5 2 66 23 128 26 74
25 84 -3 66 -13 -8 -73 -22 -135 -31 -107 -15 -113 -15 -140 2 -29 19 -28 13
10 -38 17 -24 24 -55 26 -111 1 -16 12 -18 81 -18 44 0 80 -2 80 -4 0 -2 3
-11 6 -19 4 -10 -31 -39 -114 -95 l-120 -81 -73 96 c-40 53 -88 114 -107 136
-18 22 -31 43 -30 47 2 5 42 39 89 76 181 145 236 189 299 239 294 232 310
246 320 287 6 21 8 47 5 57 -4 14 6 26 42 49 26 17 50 29 54 26 4 -2 46 -55
92 -117z m-7208 86 c56 -27 56 -28 50 -64 -10 -58 14 -90 137 -183 62 -47 178
-135 258 -196 80 -60 152 -119 162 -130 9 -11 19 -20 23 -20 8 0 165 -122 165
-128 0 -3 -21 -30 -47 -60 -56 -65 -151 -190 -156 -205 -2 -6 -26 7 -54 29
-202 155 -464 306 -779 449 -50 22 -102 48 -114 56 l-22 14 38 65 c72 124 265
400 280 400 2 0 29 -12 59 -27z m2115 -29 c0 -8 -5 -12 -10 -9 -6 4 -8 11 -5
16 9 14 15 11 15 -7z m45 -63 c-6 -5 -25 10 -25 20 0 5 6 4 14 -3 8 -7 12 -15
11 -17z m399 -13 c33 -13 61 -29 63 -35 3 -7 -13 -21 -34 -31 -40 -21 -60 -23
-55 -7 2 6 0 7 -3 3 -4 -4 -25 2 -46 13 -34 17 -39 24 -39 54 0 32 2 34 28 31
15 -2 54 -14 86 -28z m1942 -20 c5 -8 2 -9 -9 -5 -18 7 -24 -8 -7 -18 18 -11
11 -23 -10 -18 -30 8 -36 24 -15 40 23 16 32 16 41 1z m-1951 -152 c28 -12 56
-30 64 -39 11 -15 10 -18 -13 -27 -32 -12 -46 -4 -95 52 -39 44 -28 48 44 14z
m1981 -12 c-9 -6 -15 -13 -13 -15 1 -2 0 -3 -2 -1 -2 1 -12 -5 -22 -14 -21
-19 -54 -15 -54 6 0 16 56 39 88 37 16 -1 16 -3 3 -13z m-1676 -66 c29 -70
105 -202 147 -258 60 -79 198 -224 282 -295 45 -39 81 -72 81 -75 0 -3 -12
-11 -27 -18 -16 -7 -40 -20 -54 -29 -27 -17 -27 -17 -100 42 -138 110 -284
238 -381 333 -32 31 -58 51 -58 45 0 -6 41 -62 90 -123 50 -61 88 -115 85
-121 -4 -5 -1 -8 5 -7 6 2 37 -26 68 -62 31 -36 43 -54 27 -40 -17 14 -31 28
-33 33 -2 4 -10 7 -18 7 -8 0 -14 6 -14 13 0 6 -16 22 -36 35 -22 14 -34 29
-30 37 3 8 0 17 -6 21 -7 5 -8 2 -3 -7 8 -15 -121 114 -172 172 -32 37 -133
176 -133 183 0 6 240 166 249 166 5 0 19 -24 31 -52z m1532 -45 l107 -74 -61
-82 c-86 -115 -243 -288 -340 -377 -74 -67 -89 -61 -20 8 47 46 140 158 214
257 23 30 -51 -28 -242 -191 -106 -90 -227 -184 -238 -184 -4 0 -24 11 -44 25
-20 14 -42 25 -47 25 -6 0 -11 2 -11 6 0 3 71 76 159 162 183 182 240 254 317
409 66 130 43 129 206 16z m-3373 -28 c0 -13 -38 -59 -44 -53 -3 3 4 13 15 23
11 10 20 23 20 28 0 6 -13 -2 -30 -18 -16 -15 -27 -33 -23 -38 3 -6 2 -7 -4
-4 -5 3 -17 -3 -26 -14 -14 -16 -14 -19 -2 -19 8 0 15 -4 15 -9 0 -6 -9 -8
-19 -6 -18 3 -38 -12 -56 -43 -6 -11 -3 -12 14 -2 12 6 19 15 16 20 -11 18 13
19 30 0 10 -11 22 -17 26 -14 5 3 9 1 9 -5 0 -14 -23 -19 -43 -9 -23 12 -46
-1 -23 -14 9 -5 16 -14 16 -20 0 -6 -8 -4 -18 5 -10 10 -22 17 -26 17 -12 0
-86 52 -86 61 0 4 34 51 76 103 l76 95 44 -37 c24 -20 43 -41 43 -47z m5201
-15 l81 -100 -30 -25 c-61 -52 -168 -125 -158 -108 10 15 -17 80 -31 75 -6 -2
-12 1 -12 6 0 6 6 12 13 15 6 2 1 2 -11 0 -16 -3 -23 0 -20 9 3 7 20 13 39 13
19 0 40 4 48 9 11 7 13 5 7 -9 -5 -15 -4 -16 8 -5 13 10 13 15 -1 38 l-17 27
24 -19 c14 -11 6 0 -18 23 -38 37 -45 41 -60 29 -15 -12 -16 -11 -3 4 7 10 18
15 25 11 6 -3 0 6 -13 20 l-25 27 29 30 c16 17 32 30 36 30 5 0 45 -45 89
-100z m-5157 -23 c4 3 7 4 7 1 0 -3 -10 -13 -22 -24 -13 -11 -18 -13 -11 -3
10 12 10 18 0 29 -10 12 -9 12 4 2 9 -6 19 -9 22 -5z m1408 -9 c70 -85 121
-179 214 -395 57 -131 101 -240 98 -243 -8 -8 -62 64 -56 74 4 5 1 6 -5 2 -7
-4 -60 40 -129 107 -65 62 -185 171 -268 242 -82 70 -151 131 -153 135 -4 11
83 46 173 70 44 12 82 23 84 26 9 9 24 3 42 -18z m2374 -48 c33 -13 62 -24 64
-26 2 -1 -14 -18 -35 -36 -21 -18 -128 -116 -239 -218 -254 -234 -344 -314
-350 -308 -3 2 27 74 66 159 38 85 74 163 78 174 47 110 87 182 135 246 l58
77 81 -23 c45 -13 109 -33 142 -45z m1202 63 c-4 -3 -1 -13 6 -22 11 -14 10
-14 -5 -2 -16 12 -16 31 -1 31 4 0 3 -3 0 -7z m-22 -23 c2 -4 -3 -7 -12 -6
-10 0 -18 -5 -19 -11 -1 -7 -2 -18 -3 -25 -1 -8 -7 -7 -18 4 -12 13 -14 20 -5
30 12 16 49 21 57 8z m-4925 -15 c10 -13 6 -22 -28 -59 -22 -24 -52 -62 -67
-85 -15 -22 -29 -41 -30 -41 -1 0 -9 8 -16 18 -13 16 -13 16 5 2 18 -14 19
-13 13 2 -3 9 1 22 9 28 19 16 18 34 -2 26 -8 -3 -12 -2 -9 4 8 14 32 13 37
-1 2 -7 12 1 22 16 13 20 14 27 5 23 -9 -4 -14 3 -15 18 -2 21 0 22 13 8 14
-14 18 -13 39 7 13 12 21 26 18 31 -3 5 -14 -1 -25 -13 -21 -24 -25 -19 -9 12
13 23 23 24 40 4z m6584 -125 c66 -116 128 -255 124 -277 -2 -10 -39 -31 -95
-54 l-92 -37 -37 71 c-20 38 -40 75 -45 81 -19 22 -149 227 -149 235 0 4 48
30 108 58 124 58 106 66 186 -77z m-8098 72 l110 -48 -83 -129 c-46 -72 -99
-161 -119 -198 -22 -42 -41 -67 -48 -64 -7 3 -52 22 -99 42 l-85 37 29 71 c16
39 52 114 81 166 28 53 60 113 71 134 10 20 22 37 26 37 4 0 57 -22 117 -48z
m6455 -1 c8 10 9 9 4 -8 -4 -15 2 -30 20 -49 14 -15 25 -31 25 -36 0 -11 -67
60 -82 87 -10 18 -10 19 6 6 15 -13 19 -13 27 0z m-3916 -112 c33 -33 53 -59
45 -57 -9 2 -33 -4 -55 -14 -22 -9 -49 -19 -60 -23 -15 -6 -17 -8 -5 -12 39
-12 43 -14 38 -18 -2 -3 -42 6 -89 20 -46 13 -100 25 -119 25 l-35 1 30 25
c29 25 174 114 185 114 3 0 32 -27 65 -61z m2970 15 c33 -19 75 -47 93 -62
l32 -27 -46 -3 c-26 -1 -80 -14 -121 -27 -82 -28 -92 -30 -76 -14 11 11 11 11
-44 73 l-22 24 42 36 c23 19 51 35 62 36 11 0 47 -16 80 -36z m-4158 11 c0 -8
-4 -12 -9 -9 -5 3 -6 10 -3 15 9 13 12 11 12 -6z m-1050 -61 c48 -26 117 -62
153 -82 73 -39 300 -181 300 -187 0 -2 -16 3 -36 11 -72 30 -54 7 27 -35 156
-82 340 -200 335 -216 -2 -6 -49 -9 -122 -8 -111 3 -130 6 -284 54 -172 53
-309 102 -493 176 -60 23 -115 43 -123 43 -8 0 -14 4 -14 9 0 10 53 106 102
186 17 28 37 60 45 73 7 12 15 22 18 22 2 0 43 -21 92 -46z m1734 29 c13 -17
13 -17 -6 -3 -11 8 -22 16 -24 17 -2 2 0 3 6 3 6 0 17 -8 24 -17z m5007 -50
c-6 -30 -25 -25 -20 6 2 16 -1 32 -7 35 -6 4 -11 12 -11 18 0 6 9 -1 21 -16
11 -14 19 -34 17 -43z m729 -50 c100 -167 97 -162 76 -169 -10 -4 -79 -33
-154 -65 -201 -86 -321 -132 -446 -172 -104 -34 -124 -37 -258 -40 -100 -3
-145 -1 -142 7 4 11 58 52 247 181 69 48 157 109 195 136 77 54 366 222 411
239 1 0 33 -53 71 -117z m-3713 23 c55 -40 102 -78 104 -84 2 -6 -5 -15 -16
-21 -15 -8 -35 0 -103 39 -46 27 -94 50 -107 50 -22 0 -54 -19 -116 -68 -30
-24 -71 -26 -71 -4 0 11 192 163 205 161 3 0 50 -33 104 -73z m2688 -83 c142
-190 141 -187 82 -236 l-31 -26 -34 47 c-19 26 -66 87 -105 136 l-72 90 41 38
c23 20 45 37 48 38 3 0 35 -39 71 -87z m-5478 55 c-4 -6 -2 -8 3 -5 6 4 24 -3
39 -15 16 -12 31 -23 33 -24 2 -2 -158 -210 -200 -258 -8 -9 -79 30 -79 44 0
23 191 281 203 273 4 -2 4 -9 1 -15z m4113 6 c-3 -3 -12 -4 -19 -1 -8 3 -5 6
6 6 11 1 17 -2 13 -5z m-1398 -38 c7 -8 24 -17 39 -21 15 -4 35 -14 45 -22 9
-9 17 -13 17 -8 0 4 7 2 15 -5 13 -11 12 -16 -10 -36 -15 -13 -28 -24 -31 -24
-3 0 -27 21 -54 46 l-49 46 -51 -41 c-56 -44 -58 -45 -79 -32 -20 13 -3 32 64
77 54 37 76 42 94 20z m-1608 -165 c24 -16 78 -63 119 -105 l74 -76 -61 0
c-66 0 -237 27 -376 59 -48 12 -99 21 -112 21 -14 0 -25 4 -25 9 0 16 138 81
212 101 99 26 117 25 169 -9z m3357 -7 c42 -14 102 -39 132 -57 l54 -31 -74
-12 c-41 -7 -122 -25 -180 -40 -71 -17 -142 -27 -220 -31 l-115 -4 81 80 c131
128 181 143 322 95z m-1636 -114 c21 -14 38 -30 38 -36 0 -5 -24 -31 -54 -57
-54 -47 -55 -47 -128 -47 l-74 0 -58 57 -59 57 24 16 c13 8 55 38 94 66 l70
50 55 -41 c30 -22 72 -52 92 -65z m3866 -19 c10 -28 9 -29 -26 -35 -21 -3 -73
-6 -117 -6 l-80 0 44 20 c23 11 48 17 55 13 6 -3 7 -2 3 3 -12 13 85 54 100
42 6 -5 16 -22 21 -37z m-7896 2 l89 -38 -89 -3 c-48 -1 -97 1 -109 5 -18 7
-19 11 -6 41 7 17 16 32 20 32 3 0 46 -17 95 -37z m568 -260 c0 -4 -52 -58
-116 -121 -86 -85 -123 -129 -143 -171 l-26 -56 -3 -837 c-1 -461 1 -838 6
-838 23 0 575 144 622 162 30 12 78 37 107 55 62 41 184 168 212 220 19 36 20
37 21 11 0 -14 -10 -107 -22 -205 -12 -98 -22 -226 -23 -285 l0 -107 -65 -6
c-137 -13 -292 -38 -471 -76 -284 -60 -457 -113 -814 -252 -153 -59 -404 -141
-411 -134 -3 3 6 13 19 23 39 31 137 145 175 204 56 86 119 228 141 315 37
147 41 231 41 925 0 759 6 694 -78 817 -74 109 -181 196 -369 302 -51 29 -93
54 -93 57 0 2 290 4 645 4 355 0 645 -3 645 -7z m6626 -9 c-3 -9 -6 -37 -6
-62 l0 -47 -3260 3 -3260 2 0 60 0 60 3266 0 c2974 0 3266 -1 3260 -16z m1234
-65 c-69 -45 -148 -101 -177 -125 -66 -57 -138 -152 -175 -232 l-29 -63 3
-767 c3 -759 4 -768 26 -847 45 -161 141 -329 261 -457 40 -43 67 -78 59 -78
-54 0 -355 86 -452 130 -154 69 -290 187 -393 340 -91 135 -379 649 -637 1137
l-91 171 -3 -516 c-2 -315 1 -548 8 -596 11 -88 43 -157 101 -218 20 -21 33
-38 30 -38 -3 0 -82 11 -176 25 -93 13 -240 32 -326 42 l-156 17 33 43 c61 80
59 49 59 863 0 410 -3 757 -8 772 -4 15 -21 44 -38 63 -18 20 -30 37 -28 38 2
1 145 0 318 -3 l314 -5 58 -103 c32 -57 165 -302 295 -545 130 -243 255 -473
278 -512 l41 -70 3 590 c2 596 -1 660 -35 733 -18 39 -120 146 -215 225 -32
27 -58 52 -58 58 0 5 238 9 618 9 l617 0 -125 -81z m-4493 -290 c70 -17 105
-20 175 -15 l88 7 -38 -73 c-37 -73 -37 -73 -37 -200 0 -71 -2 -128 -5 -128
-3 0 -25 25 -50 56 -94 119 -177 157 -340 158 -106 0 -183 -20 -218 -57 -12
-12 -31 -45 -44 -72 -23 -50 -23 -54 -23 -455 0 -358 2 -413 18 -470 19 -71
56 -125 105 -153 38 -23 120 -26 185 -8 l47 14 0 247 0 248 -35 31 c-20 17
-64 46 -98 63 l-62 32 160 13 c199 15 331 34 599 84 116 21 248 42 295 46 l85
6 -32 -39 c-59 -74 -62 -95 -62 -436 0 -344 8 -424 51 -515 34 -71 64 -96 139
-115 l53 -14 -65 -32 c-92 -45 -185 -65 -308 -66 -97 -1 -109 1 -165 29 -52
26 -64 37 -88 86 -25 49 -29 71 -37 205 -5 82 -10 243 -10 357 l0 208 -47 -3
-48 -3 -3 -302 -2 -301 -88 -35 c-152 -60 -210 -71 -382 -72 -181 0 -271 17
-381 72 -128 64 -230 194 -258 331 -7 33 -11 195 -11 435 0 427 4 460 66 578
81 154 239 245 479 278 102 14 288 5 392 -20z m1745 16 c293 -44 452 -179 504
-425 12 -61 14 -147 12 -499 l-3 -426 -31 -66 c-65 -137 -212 -239 -393 -275
-116 -23 -374 -15 -483 14 -182 49 -337 162 -400 290 l-33 67 -3 408 c-3 458
2 514 60 633 62 128 169 210 330 254 146 40 289 48 440 25z m-6277 -19 c110
-29 210 -97 246 -167 18 -37 19 -65 19 -696 0 -384 -4 -695 -10 -747 -13 -109
-68 -282 -119 -368 -61 -106 -172 -206 -258 -232 -21 -7 -23 -4 -23 27 0 30 8
41 55 82 96 82 169 210 217 383 21 75 22 97 25 775 4 681 3 699 -16 730 -11
18 -32 44 -48 59 -34 32 -182 108 -212 108 -15 0 -21 6 -21 23 0 13 3 27 7 30
11 11 85 8 138 -7z m9135 -19 c0 -31 -4 -35 -40 -46 -22 -7 -38 -16 -35 -21 3
-4 -3 -6 -13 -3 -28 7 -107 -70 -135 -130 l-23 -52 6 -690 c6 -678 6 -691 29
-773 42 -154 102 -261 200 -356 42 -41 50 -55 49 -83 -1 -18 -6 -33 -12 -33
-28 0 -117 64 -169 119 -101 110 -175 279 -196 451 -7 52 -11 344 -11 760 0
631 2 678 19 715 39 87 183 171 299 174 30 1 32 -1 32 -32z m-5820 16 c0 -2
-18 -26 -39 -54 -56 -74 -75 -142 -68 -243 3 -44 8 -90 13 -101 4 -11 -24 10
-62 46 -125 120 -196 139 -508 139 -112 0 -205 -2 -207 -4 -2 -2 -3 -50 -1
-105 l3 -101 177 0 c146 0 188 4 240 19 35 11 62 16 60 13 -32 -59 -41 -98
-46 -184 l-5 -96 -37 39 c-20 21 -45 39 -56 39 -10 0 -29 3 -42 7 l-24 6 8
-84 c7 -82 6 -84 -12 -67 -50 44 -244 102 -266 80 -5 -5 -7 -183 -6 -398 l3
-389 30 2 c111 8 594 78 658 95 96 25 169 72 261 168 38 39 70 69 72 67 3 -2
0 -35 -6 -73 -24 -169 -8 -385 34 -449 9 -13 16 -26 16 -27 0 -2 -66 1 -147 5
-168 9 -531 -5 -728 -28 -147 -17 -730 -103 -759 -111 -10 -4 -16 -2 -14 2
127 260 130 292 126 1059 -4 618 -2 603 -79 686 -21 23 -39 43 -39 43 0 1 326
1 725 1 399 0 725 -1 725 -2z m590 -2183 l0 -170 -35 0 -35 0 0 83 -1 82 -27
-30 c-15 -17 -35 -41 -44 -53 l-16 -23 -46 48 -46 48 0 -77 0 -78 -35 0 -35 0
0 165 c0 193 -4 189 96 83 l60 -64 73 78 c40 43 77 78 82 78 5 0 9 -76 9 -170z
m310 130 c0 -29 0 -29 -67 -32 l-68 -3 -3 -33 -3 -34 43 4 c42 3 43 2 46 -29
3 -31 2 -32 -40 -35 -40 -3 -43 -5 -43 -33 l0 -30 68 3 67 3 0 -34 c0 -33 -2
-36 -37 -41 -21 -3 -63 -4 -93 -1 -30 2 -61 4 -67 5 -10 0 -13 39 -13 160 l0
159 98 3 c53 2 100 2 105 0 4 -2 7 -16 7 -32z m419 21 c31 -17 43 -66 27 -111
-12 -36 -12 -41 5 -56 28 -25 25 -89 -5 -119 -25 -25 -98 -39 -171 -33 l-40 3
-3 155 c-1 85 0 161 3 169 4 11 21 13 85 8 44 -4 89 -11 99 -16z m-2380 0 c10
-7 6 -20 -22 -61 l-36 -53 -138 -3 c-76 -1 -208 -12 -293 -23 -134 -18 -446
-70 -519 -87 -23 -5 -23 -8 -18 -70 6 -79 0 -104 -23 -104 -31 0 -38 23 -41
147 l-4 122 50 11 c138 30 673 107 850 123 82 7 180 6 194 -2z m2658 -3 c6 -7
36 -76 67 -153 32 -77 60 -146 63 -152 4 -9 -8 -13 -41 -13 -39 0 -46 3 -46
20 0 18 -7 20 -64 20 -56 0 -66 -3 -71 -20 -5 -16 -15 -20 -47 -20 -28 0 -39
4 -35 13 2 7 33 81 68 165 63 151 80 173 106 140z m418 -15 c-3 -15 -37 -73
-74 -130 -38 -56 -66 -105 -63 -108 3 -3 32 -5 64 -5 58 0 58 0 58 -30 l0 -30
-120 0 c-66 0 -120 4 -120 8 0 5 32 60 71 123 39 63 73 119 75 124 3 6 -17 9
-51 7 l-55 -4 0 36 0 36 111 0 111 0 -7 -27z m285 6 c0 -9 -33 -69 -74 -133
l-75 -116 60 0 59 0 0 -35 0 -36 -115 2 c-91 1 -115 4 -115 15 0 8 20 45 43
82 24 37 58 90 75 117 l32 50 -60 3 -60 3 0 35 0 36 115 -3 c99 -3 115 -6 115
-20z m-2226 -11 c17 -27 136 -289 136 -300 0 -5 -18 -8 -39 -8 -32 0 -41 4
-46 21 -6 18 -12 20 -44 15 -20 -3 -48 -6 -63 -6 -18 0 -29 -7 -33 -20 -5 -15
-15 -20 -45 -20 l-39 0 25 68 c40 105 116 272 125 272 5 0 15 -10 23 -22z
m2430 -40 c60 -147 98 -245 103 -267 5 -20 3 -23 -11 -18 -10 4 -31 7 -47 7
-22 0 -29 5 -29 20 0 17 -7 20 -49 20 -27 0 -56 3 -65 6 -10 4 -17 -2 -22 -20
-6 -24 -9 -26 -43 -20 -20 4 -37 7 -38 8 -2 2 123 263 145 304 7 12 17 22 21
22 5 0 20 -28 35 -62z m1343 27 c291 -37 654 -93 670 -104 5 -3 7 -62 4 -136
-5 -117 -8 -130 -25 -133 -28 -6 -36 15 -36 95 l0 71 -32 11 c-120 38 -555
100 -765 108 l-153 6 -30 47 c-16 26 -30 52 -30 58 0 20 104 14 397 -23z
m-4058 4 c36 -13 35 -10 19 -44 -11 -24 -16 -26 -51 -21 -54 9 -104 -9 -122
-44 -38 -73 -1 -140 78 -140 47 0 67 13 67 43 0 17 -5 18 -35 13 -35 -7 -35
-6 -35 28 l0 34 70 4 70 3 0 -70 c0 -76 -4 -86 -36 -103 -143 -76 -298 23
-265 169 13 57 38 90 91 117 48 24 100 28 149 11z m3060 -5 l39 -16 -20 -34
c-11 -19 -23 -33 -27 -32 -66 34 -91 34 -91 0 0 -13 16 -26 51 -42 61 -29 89
-62 89 -105 0 -93 -125 -132 -210 -66 -24 19 -24 20 -7 56 l18 37 24 -27 c19
-20 33 -26 58 -23 52 5 43 36 -23 73 -80 45 -100 97 -59 149 37 48 90 57 158
30z m-3663 -120 c46 -35 48 -36 75 -20 35 21 83 21 100 0 12 -14 7 -21 -31
-54 l-45 -38 18 -50 c9 -27 17 -52 17 -56 0 -3 -17 -6 -38 -6 -28 0 -46 8 -70
30 -40 36 -54 37 -125 5 -56 -24 -60 -24 -81 12 -4 7 15 28 49 53 55 41 56 43
50 80 -8 46 1 80 20 80 7 0 35 -16 61 -36z m4114 17 c5 -11 10 -39 10 -63 0
-39 4 -46 50 -83 81 -65 57 -88 -54 -50 l-58 20 -27 -33 c-24 -28 -34 -32 -74
-32 -47 0 -47 0 -41 28 4 15 13 38 22 51 14 23 13 26 -14 50 -16 14 -40 33
-54 42 -22 14 -23 18 -10 33 15 20 53 18 106 -4 30 -13 33 -12 68 23 41 42 60
46 76 18z m-5766 -159 c84 -49 207 -170 245 -242 17 -32 31 -63 31 -70 0 -7
-39 26 -87 73 -49 47 -111 104 -139 126 -52 41 -167 101 -193 101 -10 0 -5 11
14 30 33 35 40 34 129 -18z m7456 8 c9 -18 4 -23 -54 -49 -90 -41 -136 -74
-251 -185 -55 -52 -103 -96 -108 -96 -13 0 33 82 80 142 55 72 124 131 217
184 75 44 94 45 116 4z m-6561 -51 c44 0 51 -2 34 -9 -34 -14 -31 -58 4 -66
22 -6 32 -1 56 26 l29 32 41 -18 c88 -40 154 -122 162 -202 3 -26 3 -41 -1
-34 -4 7 -27 12 -65 12 l-60 0 3 -37 3 -38 53 0 c28 0 52 -2 52 -6 0 -3 -13
-26 -29 -51 -20 -31 -46 -55 -84 -75 l-56 -31 -26 39 c-28 42 -57 50 -91 24
-10 -8 -27 -15 -36 -15 -13 0 -18 -9 -19 -32 l-2 -33 -7 35 -7 35 -2 -39 -1
-39 -42 5 c-24 3 -83 18 -132 33 -75 24 -96 36 -133 74 -23 25 -43 51 -43 58
0 7 18 17 40 23 34 9 40 15 40 37 0 25 -2 26 -47 20 -27 -3 -56 -9 -65 -12
-15 -6 -18 -1 -18 26 l0 34 59 -3 c53 -3 60 -1 66 17 3 11 4 25 1 30 -9 14
-59 20 -78 10 -14 -7 -18 -6 -18 5 0 20 64 82 116 112 52 31 180 65 218 59 16
-3 54 -5 85 -6z m5790 -28 c71 -29 132 -72 153 -108 l17 -30 -36 -1 c-44 -2
-57 -13 -48 -42 6 -19 13 -21 61 -18 53 3 54 3 54 -25 0 -25 -2 -27 -27 -20
-16 4 -41 7 -58 8 -27 0 -30 -3 -30 -30 0 -24 5 -31 33 -39 35 -10 38 -17 21
-48 -22 -41 0 -27 26 17 15 26 30 44 33 40 15 -15 -1 -90 -29 -127 l-28 -40
-18 36 c-17 36 -17 36 -37 17 -29 -26 -148 -71 -205 -78 l-48 -5 -10 38 c-10
44 -36 56 -60 27 -12 -14 -14 -15 -10 -2 4 12 -5 20 -36 29 -41 12 -41 12 -70
-24 -25 -31 -31 -34 -54 -25 -14 5 -39 21 -55 34 -16 14 -33 23 -38 20 -4 -3
-14 3 -21 12 -10 12 -10 14 -1 9 18 -11 15 5 -8 39 -27 41 -26 44 19 38 42 -6
81 10 81 32 0 22 -21 29 -82 28 -66 -2 -69 3 -43 78 20 54 75 113 137 145 58
29 61 29 73 2 14 -30 37 -42 68 -34 31 7 36 36 10 62 -16 16 -10 16 97 12 86
-4 128 -11 169 -27z m-6792 -83 c65 -32 144 -107 178 -170 l30 -53 0 -255 c0
-253 0 -255 26 -316 65 -152 177 -269 322 -338 181 -86 310 -106 689 -106
l278 0 5 28 c16 83 28 119 44 135 17 18 18 15 24 -85 8 -165 63 -278 189 -392
107 -97 225 -140 383 -140 109 -1 208 27 286 80 39 26 58 33 69 26 58 -36 -50
-138 -200 -188 -73 -24 -239 -24 -330 0 -187 50 -347 191 -421 370 l-24 59
-175 -6 c-263 -8 -503 6 -620 38 -171 46 -255 85 -366 169 -143 107 -264 324
-280 500 -4 42 -8 76 -11 76 -2 0 -20 -11 -41 -25 -60 -39 -121 -57 -197 -57
-231 0 -394 213 -329 432 25 85 74 150 149 198 89 57 230 66 322 20z m7813 -4
c69 -31 126 -87 167 -166 24 -47 28 -64 28 -143 0 -115 -25 -175 -101 -244
-74 -68 -145 -94 -245 -89 -65 3 -87 9 -146 40 l-70 36 -6 -81 c-9 -123 -37
-199 -124 -333 -113 -173 -351 -306 -638 -355 -27 -4 -205 -10 -393 -11 l-344
-3 -29 -68 c-101 -237 -307 -371 -569 -371 -118 0 -212 27 -298 84 -85 57
-107 95 -78 135 13 18 15 18 50 -13 117 -102 331 -137 494 -79 144 50 263 150
324 272 43 84 58 146 58 248 0 50 4 87 10 87 18 0 44 -53 55 -114 l11 -61 330
1 c353 0 431 8 589 58 170 54 317 174 392 321 53 102 68 179 59 298 -19 265
-19 294 0 346 37 105 128 189 244 226 63 21 157 12 230 -21z m-4676 -58 c-7
-18 69 -161 140 -263 70 -102 136 -213 136 -231 0 -15 -44 -62 -58 -62 -16 0
-46 34 -137 155 -128 171 -169 213 -242 247 -100 45 -174 41 -928 -47 -214
-25 -411 -48 -436 -51 l-46 -6 -12 47 c-7 26 -10 49 -8 52 12 11 494 68 1077
128 506 52 522 53 514 31z m1751 -35 c253 -26 771 -86 1053 -122 50 -7 92 -16
92 -21 0 -4 -4 -8 -8 -8 -5 0 -17 -18 -27 -40 -10 -22 -25 -40 -33 -40 -8 0
-121 13 -251 30 -443 55 -936 109 -1027 112 -90 3 -93 2 -170 -38 -87 -44 -97
-55 -272 -286 -53 -71 -99 -128 -102 -128 -8 0 -60 82 -60 95 0 14 71 131 178
295 46 69 88 140 95 159 l12 34 115 -6 c63 -4 246 -20 405 -36z m-4241 -228
c41 -44 43 -68 3 -44 -22 14 -22 14 -3 -8 38 -43 2 -20 -45 29 -42 44 -49 56
-49 91 l0 41 27 -34 c14 -18 45 -52 67 -75z m2123 12 c60 -18 122 -78 103
-100 -10 -12 -98 -42 -103 -34 -1 2 -9 18 -18 34 l-15 30 -95 -1 c-80 0 -103
-4 -153 -27 -107 -49 -232 -153 -301 -250 l-20 -28 -39 40 c-44 45 -45 42 37
132 49 54 55 64 40 70 -10 3 -99 -2 -198 -12 -99 -10 -189 -18 -200 -19 -11 0
-27 -5 -35 -10 -13 -9 -10 -15 18 -40 17 -16 32 -32 32 -34 0 -3 -16 -10 -36
-15 -37 -10 -38 -9 -113 61 -79 73 -91 88 -71 88 29 0 457 54 650 82 118 17
238 34 265 38 89 13 200 10 252 -5z m2286 -10 c42 -8 171 -26 285 -40 289 -36
586 -76 590 -80 2 -1 -14 -13 -34 -26 -21 -12 -64 -45 -96 -71 -57 -48 -59
-49 -92 -37 l-34 12 39 29 c21 15 39 32 39 36 0 5 -66 16 -147 26 -169 20
-333 33 -333 28 0 -2 29 -36 65 -74 36 -39 65 -75 65 -80 0 -12 -65 -78 -77
-78 -4 0 -15 15 -22 32 -28 62 -142 162 -236 207 -102 48 -147 60 -232 61 -64
0 -86 -11 -98 -50 -8 -24 -33 -25 -80 -6 -22 10 -35 22 -35 34 0 31 60 76 125
93 42 12 215 3 308 -16z m1441 -40 c-7 -19 -14 -37 -14 -40 0 -10 36 -5 48 7
6 6 15 8 19 4 4 -4 1 -11 -7 -16 -10 -6 -4 -10 21 -13 23 -2 15 -4 -24 -5 -42
-2 -59 2 -63 13 -7 17 14 85 26 85 5 0 2 -16 -6 -35z m-5886 -80 l17 -20 -24
20 c-27 23 -51 66 -51 92 0 10 10 -2 21 -27 11 -24 28 -54 37 -65z m453 85
c27 -15 24 -37 -6 -42 -29 -6 -48 12 -39 36 7 19 18 20 45 6z m5834 -10 c3
-11 2 -28 -4 -37 -9 -16 -10 -16 -11 4 0 12 -3 28 -6 37 -3 9 -1 16 4 16 6 0
13 -9 17 -20z m-5815 -60 c-14 -4 -47 -8 -75 -7 l-50 0 50 7 c28 4 61 7 75 7
l25 1 -25 -8z m2734 -67 c39 -37 134 -128 211 -203 78 -74 292 -277 477 -450
l336 -314 -35 -41 c-19 -22 -37 -39 -39 -38 -3 1 -222 216 -487 478 -265 262
-493 485 -507 495 l-26 18 -104 -101 c-58 -55 -164 -157 -235 -226 -72 -70
-240 -233 -374 -364 l-243 -238 19 -22 c10 -12 66 -74 123 -137 110 -121 154
-173 130 -152 -20 17 -35 15 -20 -3 11 -13 10 -14 -5 -8 -15 5 -17 3 -12 -11
5 -11 3 -15 -5 -10 -8 5 -9 1 -4 -12 6 -17 -166 153 -314 310 l-54 58 105 102
c158 152 671 641 763 726 45 41 113 105 151 142 39 37 72 68 74 68 3 0 36 -30
75 -67z m-1181 33 c27 -21 21 -30 -43 -54 l-60 -24 -20 24 c-11 12 -19 25 -20
28 0 8 82 38 105 39 11 0 28 -6 38 -13z m2305 -1 c29 -9 52 -19 52 -24 0 -5
-9 -20 -21 -35 l-20 -26 -60 33 c-32 17 -59 35 -59 39 0 3 12 11 28 16 15 6
27 11 28 11 0 1 24 -6 52 -14z m-1947 -81 c62 -18 135 -87 174 -164 37 -74 38
-84 11 -113 l-25 -27 -51 20 c-28 11 -74 20 -103 20 -49 0 -56 3 -96 44 -24
25 -70 56 -103 71 -55 25 -63 26 -111 15 -81 -19 -163 -57 -230 -106 l-61 -44
-20 20 c-27 26 -19 38 70 113 160 135 386 198 545 151z m1728 5 c38 -6 106
-30 157 -55 97 -46 254 -156 254 -179 0 -7 -11 -20 -25 -29 -24 -16 -27 -16
-58 7 -62 47 -149 90 -219 108 -71 19 -71 19 -132 -3 -43 -16 -74 -36 -107
-70 -45 -47 -48 -48 -104 -48 -39 0 -73 -7 -103 -21 l-44 -22 -25 26 c-25 25
-25 25 -9 74 61 183 192 250 415 212z m-2306 -33 l27 -25 -42 -33 c-23 -18
-56 -48 -74 -67 -34 -37 -54 -35 -54 6 0 18 18 44 58 84 31 32 57 59 58 59 1
0 13 -11 27 -24z m2681 12 c-5 -7 -3 -8 5 -3 9 5 32 -12 67 -46 54 -53 62 -71
45 -98 -8 -12 -18 -7 -53 25 -24 22 -58 49 -76 59 -17 11 -32 23 -32 27 0 16
25 48 38 48 7 0 10 -5 6 -12z m-3469 -60 c31 -14 31 -16 -3 -64 -71 -97 -200
-168 -347 -190 -49 -8 -106 -14 -125 -13 -29 0 -20 5 55 33 134 49 172 72 255
151 102 98 116 105 165 83z m4395 -87 c75 -79 93 -92 155 -114 39 -15 93 -31
120 -38 28 -6 55 -16 60 -22 14 -14 -159 0 -231 19 -76 19 -179 81 -231 137
-52 56 -62 86 -37 104 37 27 74 8 164 -86z m987 42 c-3 -10 -5 -2 -5 17 0 19
2 27 5 18 2 -10 2 -26 0 -35z m-6542 -17 c23 -34 24 -40 11 -55 -8 -9 -16 -38
-17 -64 -2 -26 -6 -47 -10 -47 -4 0 -21 16 -39 37 -27 30 -31 42 -27 70 5 31
45 108 53 101 1 -2 15 -21 29 -42z m6636 13 c46 -65 39 -137 -18 -175 -14 -9
-23 -12 -20 -7 4 6 -2 27 -13 48 -11 21 -17 43 -13 49 3 6 -11 -5 -32 -24
l-39 -35 31 40 c17 22 41 62 54 88 13 26 24 47 25 47 2 0 12 -14 25 -31z
m-2965 -424 c211 -212 384 -389 384 -395 0 -21 -21 -8 -97 63 -93 86 -285 254
-402 352 -46 39 -121 102 -165 140 -45 39 -88 76 -97 82 -16 13 -32 2 -169
-121 -19 -17 -109 -94 -200 -171 -91 -76 -201 -171 -245 -210 -127 -111 -175
-148 -183 -141 -7 8 766 785 782 786 5 0 182 -173 392 -385z m-2140 269 c19
-66 32 -65 15 2 -7 25 -10 48 -8 50 6 6 76 -20 137 -51 36 -18 49 -29 40 -35
-8 -5 3 -16 36 -35 27 -16 64 -37 82 -47 l32 -20 31 27 c17 14 37 24 43 22 6
-2 34 -34 63 -71 55 -74 83 -150 83 -229 0 -48 -19 -111 -27 -89 -8 21 -29 13
-43 -15 -12 -27 -13 -27 -20 -7 -17 45 -62 40 -87 -10 -8 -17 -13 -28 -9 -25
4 4 18 -3 31 -15 l24 -21 -27 -28 c-39 -41 -96 -68 -160 -74 -44 -5 -56 -3
-64 10 -4 9 -25 19 -46 23 -58 10 -154 53 -190 85 -31 27 -31 29 -10 30 15 0
18 3 8 6 -30 12 -99 86 -121 131 -13 26 -25 49 -26 51 -1 2 -13 -7 -27 -20
l-25 -24 26 -48 c15 -26 48 -68 75 -93 l48 -45 -22 -38 -22 -39 -44 47 c-23
25 -56 72 -72 104 -27 56 -58 192 -46 204 3 3 24 5 48 5 40 -1 42 0 23 14 -12
9 -30 12 -47 8 -26 -5 -28 -3 -28 24 0 138 143 288 277 291 31 1 33 -2 49 -55z
m749 35 c41 -20 95 -69 95 -88 0 -5 -28 -14 -62 -21 -69 -13 -142 -42 -169
-66 -16 -14 -21 -12 -56 27 -21 23 -46 50 -56 60 -18 16 -17 18 15 42 48 37
117 67 156 67 18 0 52 -10 77 -21z m2173 -14 c92 -41 92 -43 29 -119 -53 -61
-56 -64 -72 -46 -22 24 -104 57 -183 73 l-64 12 50 52 c27 28 60 53 73 56 46
10 105 0 167 -28z m542 22 c0 -6 -4 -27 -9 -45 -8 -25 -7 -32 5 -32 8 0 14 10
14 23 0 12 3 33 7 46 5 21 10 23 53 19 58 -6 122 -38 174 -86 45 -43 96 -143
96 -189 0 -32 -1 -33 -44 -33 -25 0 -48 -4 -51 -10 -4 -6 14 -10 46 -10 l52 0
-6 -62 c-6 -71 -29 -146 -60 -197 l-21 -34 -14 30 c-13 28 -13 35 12 88 31 68
33 95 8 95 -10 0 -23 5 -29 11 -8 8 -14 1 -22 -24 -7 -19 -25 -52 -41 -73 -16
-22 -30 -44 -30 -50 0 -5 -13 -28 -30 -51 -25 -33 -46 -47 -132 -82 -99 -41
-106 -43 -194 -39 -85 3 -96 6 -136 34 -48 35 -61 64 -30 64 11 0 25 7 32 15
9 11 9 15 1 15 -7 0 -10 4 -7 9 3 4 -5 18 -18 30 -30 28 -73 26 -68 -4 3 -16
-3 -13 -33 15 l-38 35 7 -45 c4 -24 4 -42 1 -38 -10 10 -35 111 -35 143 0 85
62 217 132 282 23 22 25 22 48 6 23 -16 59 -28 46 -16 -10 10 78 70 179 121
102 52 135 62 135 39z m-3960 -157 c0 -6 -9 -18 -19 -27 -11 -9 -17 -21 -14
-26 3 -6 1 -7 -4 -4 -6 4 -17 -1 -24 -10 -21 -25 -89 -52 -152 -59 -31 -4 -54
-11 -51 -15 3 -5 -14 -9 -38 -9 -24 0 -88 -3 -143 -7 l-100 -6 55 51 c50 47
59 51 104 52 89 0 327 43 384 69 1 0 2 -4 2 -9z m4612 -25 c60 -17 133 -28
205 -32 l112 -6 48 -50 48 -49 -111 6 c-126 7 -277 37 -335 67 -22 11 -43 18
-48 15 -4 -3 -22 10 -40 28 -23 24 -29 35 -19 39 24 10 46 7 140 -18z m-3305
-26 c9 -9 -3 -21 -45 -49 -31 -20 -69 -48 -83 -62 l-27 -25 -16 34 c-9 18 -16
38 -16 43 0 13 121 69 151 70 14 0 30 -5 36 -11z m2016 -32 c42 -24 42 -23 21
-66 l-16 -32 -43 40 c-23 22 -58 47 -76 56 -30 16 -31 19 -15 30 20 15 70 5
129 -28z m-4522 -74 c13 -16 12 -17 -3 -4 -17 13 -22 21 -14 21 2 0 10 -8 17
-17z m40 -40 c13 -16 12 -17 -3 -4 -10 7 -18 15 -18 17 0 8 8 3 21 -13z m3454
-45 c57 -44 80 -142 51 -212 l-14 -34 41 24 c60 34 99 31 143 -9 29 -26 37
-42 41 -81 7 -55 -12 -102 -49 -125 -30 -19 -123 -16 -154 4 -14 9 -28 15 -30
12 -3 -3 5 -31 17 -63 12 -33 23 -81 23 -109 1 -45 -2 -51 -33 -72 -43 -29
-116 -31 -170 -3 -61 31 -66 67 -21 175 29 72 30 86 8 67 -28 -23 -105 -35
-143 -22 -91 30 -103 180 -19 235 33 22 95 15 135 -14 37 -28 42 -26 25 7 -37
73 -26 154 29 209 39 39 79 43 120 11z m-2025 -38 c6 -11 8 -20 6 -20 -3 0
-10 9 -16 20 -6 11 -8 20 -6 20 3 0 10 -9 16 -20z m3851 -182 c1 -7 1 -16 0
-20 0 -4 4 -19 9 -33 5 -14 7 -25 5 -25 -8 0 -35 58 -35 75 0 18 19 21 21 3z
m-3710 -68 c-6 -22 -16 -40 -20 -40 -18 0 -20 32 -6 67 12 28 18 34 27 25 9
-9 8 -21 -1 -52z m3679 9 c13 -39 13 -43 -8 -60 -36 -29 -202 -85 -202 -68 0
2 -4 18 -9 36 l-9 31 68 22 c37 12 83 35 101 51 19 15 37 28 40 29 3 0 12 -19
19 -41z m-3206 -27 c-4 -18 -11 -32 -16 -32 -5 0 -7 -4 -3 -10 14 -23 -132
-75 -195 -68 l-30 3 17 35 c17 32 22 35 90 47 76 12 113 27 126 50 13 22 18
10 11 -25z m2726 -31 l0 -36 -16 30 c-9 17 -20 40 -25 53 -8 22 -8 22 16 6 19
-12 25 -25 25 -53z m-3038 15 l76 -21 -14 -34 c-13 -32 -16 -33 -57 -29 -52 6
-147 46 -147 62 0 25 32 57 49 50 9 -4 50 -16 93 -28z m3187 -11 c86 -7 91 -9
91 -30 0 -13 3 -31 7 -41 6 -16 0 -17 -72 -11 -94 8 -139 30 -143 71 -3 22 0
27 11 23 8 -3 55 -8 106 -12z m-3927 -21 c16 -34 0 -59 -37 -59 -37 0 -53 25
-37 59 8 18 19 26 37 26 18 0 29 -8 37 -26z m4912 1 c23 -35 6 -65 -35 -65
-21 0 -32 6 -40 24 -26 55 42 92 75 41z m-2776 -225 c14 0 15 -29 2 -50 -7
-12 -10 -11 -16 5 -4 10 -35 49 -69 85 -63 67 -127 139 -154 175 -9 11 39 -33
105 -97 67 -65 126 -118 132 -118z m-743 -56 c30 -23 425 -416 425 -424 0 -14
-26 -30 -50 -30 -41 0 -99 48 -285 232 -195 193 -214 216 -194 229 22 14 82
10 104 -7z m2169 -5 c13 -12 -356 -392 -416 -429 -40 -24 -81 -26 -99 -4 -11
13 16 44 197 225 115 116 218 215 229 219 22 10 74 3 89 -11z m-1232 -204 c48
-55 38 -47 -50 40 -61 61 -112 114 -112 120 0 13 87 -73 162 -160z m-1162 82
c13 -23 13 -28 -4 -46 -32 -36 -76 -21 -76 25 0 23 36 57 55 51 5 -2 17 -15
25 -30z m2561 1 c14 -27 2 -57 -27 -64 -49 -13 -75 50 -33 80 25 17 45 12 60
-16z"/>
<path d="M4182 8687 c-12 -14 -42 -96 -42 -114 0 -8 12 -13 29 -13 20 0 30 -6
34 -20 3 -14 14 -20 31 -20 22 0 26 4 26 30 0 25 4 30 25 30 22 0 25 4 25 35
0 29 -5 37 -27 46 -16 6 -42 17 -60 25 -24 10 -34 10 -41 1z"/>
<path d="M3930 8557 l-32 -61 22 -18 c12 -10 30 -18 40 -18 10 0 21 -8 24 -17
5 -11 9 -14 14 -6 4 6 16 12 27 14 11 3 21 13 23 23 2 11 13 27 24 35 26 22
16 41 -35 71 -74 44 -72 44 -107 -23z"/>
<path d="M6915 8420 c-9 -10 -26 -22 -37 -26 -15 -4 -18 -12 -14 -30 7 -26
-11 -33 -32 -12 -15 15 -26 4 -18 -17 3 -8 20 -18 37 -22 22 -4 34 -14 41 -34
11 -33 9 -33 43 -17 25 11 26 14 22 92 -2 44 -8 81 -14 83 -5 2 -18 -6 -28
-17z m19 -54 c8 -42 -1 -66 -25 -66 -22 0 -45 35 -28 45 5 4 14 18 19 31 13
34 27 30 34 -10z m6 -85 c0 -5 -6 -11 -13 -14 -8 -3 -14 1 -14 9 0 8 6 14 14
14 7 0 13 -4 13 -9z"/>
<path d="M6825 8300 c3 -5 8 -10 11 -10 2 0 4 5 4 10 0 6 -5 10 -11 10 -5 0
-7 -4 -4 -10z"/>
<path d="M6785 8140 c-52 -13 -105 -39 -105 -51 0 -33 34 -129 46 -129 31 0
114 24 118 35 5 14 -16 155 -24 154 -3 -1 -18 -4 -35 -9z"/>
<path d="M3343 8258 c-27 -13 -29 -23 -8 -32 22 -8 57 -95 50 -123 -6 -27 7
-29 56 -9 30 13 36 12 50 0 15 -13 16 -12 12 11 -3 14 -1 25 3 25 19 0 35 40
24 60 -12 22 -35 26 -43 8 -3 -7 -19 -21 -36 -31 l-31 -18 -20 33 c-11 18 -20
45 -20 61 0 29 -4 31 -37 15z"/>
<path d="M3681 8097 c-12 -33 -18 -64 -14 -68 5 -5 36 -17 71 -27 57 -18 62
-19 62 -3 0 10 7 26 15 37 18 24 19 58 3 71 -7 5 -36 19 -65 30 l-52 21 -20
-61z"/>
<path d="M3702 7989 c2 -7 10 -15 17 -17 8 -3 12 1 9 9 -2 7 -10 15 -17 17 -8
3 -12 -1 -9 -9z"/>
<path d="M7381 8028 c-6 -16 -19 -41 -31 -55 -22 -29 -26 -63 -8 -81 17 -17
69 -15 96 4 l23 16 -31 34 c-35 41 -37 50 -10 72 20 17 20 17 -4 28 -23 11
-26 9 -35 -18z m31 -103 c2 -15 -3 -21 -24 -23 -24 -3 -28 0 -28 20 0 33 20
52 36 36 7 -7 14 -22 16 -33z"/>
<path d="M7485 7938 c-24 -60 -35 -88 -35 -93 0 -3 11 -5 24 -5 22 0 24 3 19
33 -4 26 1 40 21 64 31 37 32 43 8 43 -13 0 -25 -14 -37 -42z"/>
<path d="M5486 7953 c-4 -9 -4 -14 0 -10 4 4 14 1 23 -6 14 -11 15 -10 1 8 -8
11 -15 21 -16 23 -1 2 -5 -5 -8 -15z"/>
<path d="M2855 7933 c16 -37 45 -188 39 -205 -6 -22 0 -22 34 -4 15 7 44 21
65 30 31 13 37 20 37 47 l0 31 -27 -17 c-16 -10 -38 -27 -50 -38 -25 -22 -22
-26 -47 61 l-15 52 41 0 41 0 -49 25 c-73 37 -77 38 -69 18z"/>
<path d="M2441 7194 l-1 -112 31 -26 c40 -34 81 -34 108 1 12 14 24 23 27 20
11 -11 23 -82 18 -107 -5 -20 6 -12 53 37 32 35 69 67 83 72 l25 10 -24 0
c-27 1 -111 39 -111 49 1 4 15 16 33 27 18 11 33 30 35 41 4 27 -50 50 -150
64 -40 6 -84 16 -98 24 l-27 13 -2 -113z"/>
<path d="M7975 7285 c-11 -8 -63 -21 -114 -29 -119 -19 -145 -36 -149 -98 -3
-46 18 -85 39 -73 5 4 9 4 9 1 0 -3 -12 -12 -27 -20 l-28 -15 27 -1 c17 0 37
10 53 27 14 15 25 23 25 17 0 -20 -49 -64 -72 -65 -15 0 -18 -3 -8 -6 8 -4 29
-16 45 -28 47 -35 75 -48 71 -33 -12 38 -14 78 -5 78 6 0 26 -12 44 -26 43
-33 73 -28 103 16 21 32 23 43 20 152 -2 65 -5 118 -8 117 -3 0 -14 -6 -25
-14z"/>
<path d="M6940 7349 c0 -5 5 -7 10 -4 6 3 10 8 10 11 0 2 -4 4 -10 4 -5 0 -10
-5 -10 -11z"/>
<path d="M3160 6990 c-13 -8 -12 -10 3 -10 9 0 17 5 17 10 0 12 -1 12 -20 0z"/>
<path d="M7320 6971 c0 -10 19 -25 25 -20 1 2 -3 10 -11 17 -8 7 -14 8 -14 3z"/>
<path d="M8635 6775 c-19 -20 -35 -45 -35 -55 0 -14 -7 -20 -22 -21 -21 -1
-21 -2 -3 -6 14 -4 29 6 52 33 l34 39 -3 -50 -3 -50 -65 -3 c-74 -2 -110 -9
-110 -20 0 -9 181 -9 196 0 6 4 14 29 17 55 3 26 9 63 13 81 6 28 4 32 -14 32
-12 0 -37 -16 -57 -35z"/>
<path d="M8518 6683 c7 -3 16 -2 19 1 4 3 -2 6 -13 5 -11 0 -14 -3 -6 -6z"/>
<path d="M1775 6744 c12 -117 9 -114 125 -114 62 0 100 4 100 10 0 19 -45 28
-112 23 l-66 -6 -7 47 c-4 26 -5 49 -3 52 3 2 16 -11 29 -31 33 -49 55 -47 30
3 -22 43 -46 67 -80 77 l-24 7 8 -68z"/>
<path d="M1994 6449 c4 -13 16 -62 28 -109 12 -47 25 -89 28 -93 4 -5 27 1 50
13 24 12 61 22 86 22 49 0 54 8 23 39 -16 16 -18 23 -8 35 23 28 39 16 39 -31
0 -27 5 -45 11 -45 8 0 10 14 6 41 -4 30 0 49 14 73 22 36 25 53 7 39 -20 -16
-205 7 -273 34 -15 5 -17 3 -11 -18z"/>
<path d="M4970 6110 c0 -5 5 -10 11 -10 5 0 7 5 4 10 -3 6 -8 10 -11 10 -2 0
-4 -4 -4 -10z"/>
<path d="M5006 6085 c4 -8 11 -15 16 -15 6 0 5 6 -2 15 -7 8 -14 15 -16 15 -2
0 -1 -7 2 -15z"/>
<path d="M2610 6476 c0 -2 7 -7 16 -10 8 -3 12 -2 9 4 -6 10 -25 14 -25 6z"/>
<path d="M7875 6489 c-4 -6 -3 -15 3 -21 6 -6 11 -4 15 6 7 18 -9 31 -18 15z"/>
<path d="M7812 6450 c-1 -36 9 -38 25 -5 6 14 7 23 2 19 -5 -3 -9 0 -9 5 0 26
-17 8 -18 -19z"/>
<path d="M7891 6454 c-14 -14 -31 -22 -38 -19 -8 2 -11 1 -8 -4 3 -5 1 -12 -5
-16 -5 -3 -10 -11 -10 -17 0 -7 9 -2 20 10 11 12 34 29 51 37 16 9 27 20 24
25 -7 12 -5 13 -34 -16z"/>
<path d="M4270 6181 c0 -6 4 -11 9 -11 5 0 31 -27 58 -60 48 -60 74 -79 51
-37 -28 49 -118 132 -118 108z"/>
<path d="M4405 6040 c-3 -5 -1 -10 4 -10 6 0 11 5 11 10 0 6 -2 10 -4 10 -3 0
-8 -4 -11 -10z"/>
<path d="M6775 5102 c-49 -24 -68 -44 -97 -107 -22 -49 -23 -59 -26 -428 -4
-415 2 -490 46 -571 46 -86 142 -122 246 -92 67 20 109 64 133 144 16 51 18
102 18 467 0 433 -2 459 -47 525 -40 59 -69 73 -155 77 -62 3 -86 0 -118 -15z"/>
<path d="M5280 3196 c0 -40 20 -48 54 -23 29 21 16 51 -22 55 -31 3 -32 2 -32
-32z"/>
<path d="M5280 3065 c0 -34 1 -35 39 -35 43 0 58 18 41 51 -8 13 -21 19 -45
19 -33 0 -35 -2 -35 -35z"/>
<path d="M5626 3122 c-24 -47 -21 -58 19 -59 32 -1 35 1 29 20 -4 12 -12 33
-19 46 l-13 25 -16 -32z"/>
<path d="M4102 3095 l-22 -45 41 0 c37 0 40 2 33 23 -3 12 -12 32 -18 45 -11
22 -12 21 -34 -23z"/>
<path d="M6508 3090 l-16 -39 34 -7 c19 -3 37 -4 39 -2 6 6 -26 88 -34 88 -3
0 -13 -18 -23 -40z"/>
<path d="M2424 2915 c-9 -23 4 -47 23 -43 26 5 28 35 3 48 -16 9 -21 8 -26 -5z"/>
<path d="M2350 2833 c-59 -21 -97 -48 -115 -83 -36 -70 -5 -151 75 -194 47
-25 59 -28 133 -24 97 4 151 27 184 77 43 63 27 136 -42 193 -46 38 -169 54
-235 31z"/>
<path d="M2630 2826 c0 -2 6 -9 14 -15 10 -9 16 -8 26 4 11 13 8 15 -14 15
-14 0 -26 -2 -26 -4z"/>
<path d="M2715 2740 c3 -5 15 -10 26 -10 11 0 17 5 14 10 -3 6 -15 10 -26 10
-11 0 -17 -4 -14 -10z"/>
<path d="M2640 2557 c0 -10 8 -17 18 -17 9 0 13 4 7 8 -5 4 -13 11 -17 16 -5
5 -8 2 -8 -7z"/>
<path d="M2200 2540 c-13 -8 -12 -10 3 -10 9 0 17 5 17 10 0 12 -1 12 -20 0z"/>
<path d="M8090 2911 c-14 -27 -13 -31 10 -31 15 0 20 7 20 25 0 30 -15 33 -30
6z"/>
<path d="M8005 2821 c-22 -10 -53 -33 -70 -50 -26 -28 -30 -40 -30 -91 0 -103
62 -149 205 -149 122 -1 203 50 215 134 12 75 -30 135 -114 163 -53 18 -160
14 -206 -7z"/>
<path d="M7803 2743 c-20 -8 -15 -23 7 -23 11 0 20 7 20 15 0 15 -6 17 -27 8z"/>
<path d="M7895 2530 c3 -5 10 -10 16 -10 5 0 9 5 9 10 0 6 -7 10 -16 10 -8 0
-12 -4 -9 -10z"/>
<path d="M8160 2485 c0 -5 5 -17 10 -25 5 -8 10 -10 10 -5 0 6 -5 17 -10 25
-5 8 -10 11 -10 5z"/>
<path d="M1275 2729 c-17 -5 -50 -25 -74 -46 -108 -92 -108 -244 0 -336 148
-127 380 -25 379 167 -1 157 -148 261 -305 215z m150 -111 c59 -46 68 -133 17
-183 -31 -31 -60 -39 -118 -32 -54 6 -80 27 -96 79 -23 77 42 158 128 158 27
0 51 -7 69 -22z"/>
<path d="M9080 2719 c-105 -47 -153 -142 -130 -252 34 -165 240 -231 370 -120
55 47 80 99 80 166 0 69 -20 118 -70 165 -65 63 -165 80 -250 41z m182 -119
c45 -48 50 -94 18 -148 -43 -70 -136 -78 -197 -17 -44 44 -47 107 -6 155 31
38 55 49 107 49 33 1 45 -5 78 -39z"/>
<path d="M6780 2243 c0 -6 8 -17 18 -24 16 -13 16 -13 2 6 -8 11 -16 22 -17
24 -2 2 -3 0 -3 -6z"/>
<path d="M4502 1038 c-15 -15 -15 -28 -1 -28 5 0 8 4 5 9 -4 5 0 11 6 14 7 2
10 7 7 10 -3 4 -11 1 -17 -5z"/>
<path d="M3400 2000 c-8 -6 -33 -15 -55 -21 l-40 -11 44 -39 c47 -42 70 -45
31 -4 l-23 25 21 0 c12 0 21 6 20 13 -2 7 9 12 29 12 17 0 30 2 27 4 -2 2 0 9
6 15 12 15 -39 20 -60 6z"/>
<path d="M3600 1955 c0 -8 2 -15 4 -15 2 0 6 7 10 15 3 8 1 15 -4 15 -6 0 -10
-7 -10 -15z"/>
<path d="M3293 1902 c-28 -17 -45 -112 -20 -112 7 0 13 17 14 46 1 25 7 52 13
60 14 15 11 18 -7 6z"/>
<path d="M3510 1891 c-82 -25 -126 -72 -136 -144 -16 -117 73 -232 211 -272
189 -55 333 96 249 262 -14 29 -42 67 -63 86 -67 61 -184 91 -261 68z m165
-96 c60 -36 96 -84 102 -139 5 -39 2 -48 -30 -82 -34 -37 -39 -39 -94 -38
-112 1 -203 79 -203 174 0 46 18 78 35 62 5 -4 5 -2 2 4 -9 15 19 38 34 28 7
-4 9 -3 5 4 -3 6 3 13 16 15 41 9 86 -1 133 -28z"/>
<path d="M3320 1730 c0 -11 4 -20 9 -20 5 0 7 9 4 20 -3 11 -7 20 -9 20 -2 0
-4 -9 -4 -20z"/>
<path d="M3971 1554 c0 -11 3 -14 6 -6 3 7 2 16 -1 19 -3 4 -6 -2 -5 -13z"/>
<path d="M3280 1514 c0 -13 18 -39 24 -34 2 3 -2 14 -10 24 -8 11 -14 16 -14
10z"/>
<path d="M3750 1410 c0 -5 9 -14 20 -20 16 -8 20 -8 20 4 0 7 -7 17 -16 20
-21 8 -24 8 -24 -4z"/>
<path d="M6194 1984 c-18 -14 -18 -14 6 -3 31 14 36 19 24 19 -6 0 -19 -7 -30
-16z"/>
<path d="M6994 1988 c-4 -6 0 -16 9 -23 9 -7 14 -14 11 -17 -2 -3 2 -8 10 -11
9 -4 18 -1 22 5 5 7 2 8 -6 3 -9 -5 -11 -4 -6 4 6 9 11 9 22 0 7 -6 11 -16 7
-22 -3 -5 -1 -7 5 -3 5 3 12 1 14 -5 2 -6 19 4 38 22 l35 32 -55 13 c-69 17
-97 17 -106 2z"/>
<path d="M6850 1955 c7 -9 15 -13 17 -11 7 7 -7 26 -19 26 -6 0 -6 -6 2 -15z"/>
<path d="M7159 1918 c-8 -26 -5 -36 9 -31 8 4 13 2 10 -3 -4 -5 0 -18 8 -29
18 -24 18 -14 0 30 -13 30 -24 43 -27 33z"/>
<path d="M6790 1881 c-71 -25 -153 -108 -170 -172 -36 -133 33 -232 173 -246
151 -15 322 141 302 276 -13 94 -81 150 -189 158 -44 2 -77 -2 -116 -16z"/>
<path d="M7120 1859 c0 -5 5 -7 10 -4 6 3 10 8 10 11 0 2 -4 4 -10 4 -5 0 -10
-5 -10 -11z"/>
<path d="M7174 1788 c-3 -4 4 -8 15 -8 12 0 21 4 21 8 0 5 -7 9 -15 9 -9 0
-18 -4 -21 -9z"/>
<path d="M7140 1719 c0 -11 4 -18 10 -14 5 3 7 12 3 20 -7 21 -13 19 -13 -6z"/>
<path d="M6502 1661 c-11 -7 -10 -10 3 -15 20 -7 38 1 30 15 -7 11 -16 11 -33
0z"/>
<path d="M6525 1580 c3 -5 11 -10 16 -10 6 0 7 5 4 10 -3 6 -11 10 -16 10 -6
0 -7 -4 -4 -10z"/>
<path d="M6680 1410 c0 -5 7 -10 15 -10 8 0 15 5 15 10 0 6 -7 10 -15 10 -8 0
-15 -4 -15 -10z"/>
</g>
</svg>
